// Gmsh project created on Mon Feb 12 13:30:38 2018
SetFactory("OpenCASCADE");
//+
Point(1) = {0, 0, 0, 1.0};
//+
Point(2) = {1, 0, 0, 1.0};
//+
Point(3) = {1, 0, 0.1, 1.0};
//+
Point(4) = {0, 0, 0.1, 1.0};
//+
Point(5) = {0, 0.1, 0, 1.0};
//+
Point(6) = {1, 0.1, 0, 1.0};
//+
Point(7) = {0, 0.1, 0.1, 1.0};
//+
Point(8) = {1, 0.1, 0.1, 1.0};
//+
Point(9) = {0.499, 0, 0.05, 1.0};
//+
Point(10) = {0.501, 0, 0.05, 1.0};
//+
Point(11) = {0.501, 0.1, 0.05, 1.0};
//+
Point(12) = {0.499, 0.1, 0.05, 1.0};
//+
Point(13) = {0.499, 0.1, 0.1, 1.0};
//+
Point(14) = {0.501, 0.1, 0.1, 1.0};
//+
Point(15) = {0.3, 0, 0.1, 1.0};
//+
Point(16) = {0.5, 0, 0.1, 1.0};
//+
Point(17) = {0.499, 0, 0.1, 1.0};
//+
Point(18) = {0.501, 0, 0.1, 1.0};
//+
Delete {
  Point{15}; 
}
//+
Delete {
  Point{16}; 
}
//+
Line(1) = {4, 7};
//+
Line(2) = {7, 5};
//+
Line(3) = {5, 1};
//+
Line(4) = {1, 4};
//+
Line(5) = {4, 17};
//+
Line(6) = {17, 13};
//+
Line(7) = {13, 12};
//+
Line(8) = {12, 11};
//+
Line(9) = {11, 14};
//+
Line(10) = {14, 18};
//+
Line(11) = {18, 10};
//+
Line(12) = {10, 9};
//+
Line(13) = {9, 17};
//+
Line(14) = {18, 3};
//+
Line(15) = {3, 8};
//+
Line(16) = {8, 6};
//+
Line(17) = {6, 2};
//+
Line(18) = {2, 3};
//+
Line(19) = {2, 1};
//+
Line(20) = {5, 6};
//+
Line(21) = {8, 14};
//+
Line(22) = {13, 7};
//+
Line Loop(1) = {22, -1, 5, 6};
//+
Plane Surface(1) = {1};
//+
Line(23) = {10, 11};
//+
Line(24) = {12, 9};
//+
Line Loop(2) = {6, 7, 24, 13};
//+
Plane Surface(2) = {2};
//+
Line Loop(3) = {10, 11, 23, 9};
//+
Plane Surface(3) = {3};
//+
Line Loop(4) = {10, 14, 15, 21};
//+
Plane Surface(4) = {4};
//+
Line Loop(5) = {18, 15, 16, 17};
//+
Plane Surface(5) = {5};
//+
Line Loop(6) = {4, 1, 2, 3};
//+
Plane Surface(6) = {6};
//+
Line Loop(7) = {19, -3, 20, 17};
//+
Plane Surface(7) = {7};
//+
Line Loop(8) = {4, 5, -13, -12, -11, 14, -18, 19};
//+
Plane Surface(8) = {8};
//+
Line Loop(9) = {2, 20, -16, 21, -9, -8, -7, 22};
//+
Plane Surface(9) = {9};
//+
Line Loop(10) = {24, -12, 23, -8};
//+
Plane Surface(10) = {10};
//+
Surface Loop(1) = {9, 6, 8, 1, 2, 10, 3, 4, 5, 7};
//+
Volume(1) = {1};
//+
Field[1] = MathEval;
//+
Field[1].F = "1.1 - (exp(-10*abs(x-0.5)) *  (1/(1+exp(-1*(z-0.05))))  )";
//+
Surface Loop(2) = {8, 6, 1, 9, 7, 5, 4, 3, 10, 2};
//+
Surface Loop(3) = {8, 6, 1, 9, 7, 5, 4, 3, 10, 2};
//+
Background Field = 1;
//+
Field[1].F = "1.1 - (exp(-10*abs(x-0.5)) *  (1/(1+exp(-10*(z-0.05))))  )";
//+
Field[1].F = "1.1 - (exp(-10*abs(x-0.5)) *  (1/(1+exp(-100*(z-0.05))))  )";
//+
Field[1].F = "1.1 - (exp(-10*abs(x-0.5)) *  (1/(1+exp(-50*(z-0.05))))  )";
//+
Field[1].F = "1.1 - (exp(-10*abs(x-0.5)) *  (1/(1+exp(-25*(z-0.05))))  )";
//+
Field[1].F = "1.1 - (exp(-10*abs(x-0.5)) *  (1/(1+exp(-10*(z-0.05))))  )";
//+
Field[1].F = "1.1 - (exp(-10*abs(x-0.5)) *  (1/(1+exp(-1*(z-0.05))))  )";
//+
Field[1].F = "1.1 - (exp(-10*abs(x-0.5)) *  (1/(1+exp(-25*(z-0.05))))  )";
//+
Field[1].F = "1.1 - (exp(-10*abs(x-0.5)) *  (1/(1+exp(-50*(z-0.05))))  )";
//+
Field[1].F = "1.1 - (exp(-10*abs(x-0.5)) *  (1/(1+exp(-50*(z-0.005))))  )";
//+
Field[1].F = "1.1 - (exp(-10*abs(x-0.5)) *  (1/(1+exp(-50*(z-0.5))))  )";
//+
Field[1].F = "1.1 - (exp(-10*abs(x-0.5)) *  (1/(1+exp(-50*(z-0.8))))  )";
//+
Field[1].F = "1.1 - (exp(-10*abs(x-0.5)) *  (1/(1+exp(-50*(z-0.08))))  )";
//+
Field[1].F = "1.1 - (exp(-10*abs(x-0.5)) *  (1/(1+exp(-50*(z-0.05))))  )";
//+
Field[1].F = "1.1 - (exp(-100*abs(x-0.5)) *  (1/(1+exp(-50*(z-0.05))))  )";
//+
Field[1].F = "1.1 - (exp(-1*abs(x-0.5)) *  (1/(1+exp(-50*(z-0.05))))  )";
//+
Field[1].F = "1.1 - (exp(-50*abs(x-0.5)) *  (1/(1+exp(-50*(z-0.05))))  )";
//+
Field[1].F = "1.1 - (exp(-100*abs(x-0.5)) *  (1/(1+exp(-50*(z-0.05))))  )";
//+
Field[1].F = "1.1 - (exp(-1000*abs(x-0.5)) *  (1/(1+exp(-50*(z-0.05))))  )";
//+
Field[1].F = "1.1 - (exp(-10*abs(x-0.5)) *  (1/(1+exp(-50*(z-0.05))))  )";
//+
Field[1].F = "1.1 - (exp(-10*abs(x-0.5)) *  (10/(1+exp(-50*(z-0.05))))  )";
//+
Field[1].F = "1.1 - (exp(-10*abs(x-0.5)) *  (0.1/(1+exp(-50*(z-0.05))))  )";
//+
Field[1].F = "1.1 - (exp(-10*abs(x-0.5)) *  (1/(1+exp(-50*(z-0.05))))  )";
